<?xml version="1.0" encoding="UTF-8"?>
<svg version="1.1" xmlns="http://www.w3.org/2000/svg" width="3957" height="750">
<path d="M0 0 C1.89662132 -0.00855011 1.89662132 -0.00855011 3.83155823 -0.01727295 C6.49980225 -0.02666417 9.16793561 -0.03358928 11.83618164 -0.03710938 C15.80957535 -0.04357173 19.78258696 -0.07774499 23.75585938 -0.109375 C78.71913545 -0.33532097 140.34432976 8.62901287 184.44140625 44.203125 C185.03244141 44.6775 185.62347656 45.151875 186.23242188 45.640625 C217.10995887 70.68175321 234.28168415 105.92659104 238.44140625 145.203125 C242.61794619 190.95303947 237.3955996 239.49525274 207.44140625 276.203125 C169.75551921 321.05177243 111.15469484 336.61311862 54.94775391 341.7265625 C48.22739952 342.27687046 41.53714643 342.38144559 34.796875 342.40625 C33.5210556 342.41330963 32.24523621 342.42036926 30.93075562 342.42764282 C26.83013343 342.44719516 22.72957067 342.45233485 18.62890625 342.453125 C17.58229387 342.45356686 17.58229387 342.45356686 16.51453781 342.45401764 C-24.32893067 342.45680648 -24.32893067 342.45680648 -44.55859375 339.203125 C-45.82960938 338.99913086 -47.100625 338.79513672 -48.41015625 338.58496094 C-97.84559099 330.43768869 -148.06054762 312.17636225 -178.35791016 269.94726562 C-181.81867634 264.92007701 -184.74582279 259.61286841 -187.55859375 254.203125 C-188.16574219 253.04296875 -188.77289062 251.8828125 -189.3984375 250.6875 C-197.19334535 235.205448 -201.48202087 218.35816749 -203.55859375 201.203125 C-203.65358154 200.43766357 -203.74856934 199.67220215 -203.84643555 198.88354492 C-204.73477058 190.64374394 -204.74471115 182.40448631 -204.74389648 174.12670898 C-204.74606816 171.66957875 -204.76424402 169.21290979 -204.78320312 166.75585938 C-204.83904476 151.56836159 -203.61471694 136.67805293 -199.99609375 121.890625 C-199.74069824 120.84229492 -199.48530273 119.79396484 -199.22216797 118.71386719 C-195.22017402 103.15238513 -188.77800176 88.38861796 -179.55859375 75.203125 C-178.47191406 73.64464844 -178.47191406 73.64464844 -177.36328125 72.0546875 C-163.23713284 52.49312033 -144.83386007 38.21463742 -123.55859375 27.203125 C-122.90729492 26.8618457 -122.25599609 26.52056641 -121.58496094 26.16894531 C-84.89566256 7.17918959 -40.96099093 0.14839346 0 0 Z M-54 115.69921875 C-70.88263936 134.92428862 -72.95244566 159.86652327 -71.42236328 184.38623047 C-69.78047878 202.84696589 -62.11476925 219.50312901 -48.55859375 232.203125 C-26.17907541 250.78707703 3.93203242 254.27145261 31.98876953 251.99658203 C54.1009491 249.57927618 76.01200641 241.40542422 90.4375 223.76171875 C105.60399945 202.92001305 108.54134473 176.40286917 104.62109375 151.32861328 C102.33603383 139.26823717 98.12272462 128.78877022 90.44140625 119.203125 C89.51328125 118.02943359 89.51328125 118.02943359 88.56640625 116.83203125 C75.12407967 100.76086258 53.87006679 92.92175224 33.48046875 90.484375 C2.08833307 87.94829361 -31.01056079 92.1948161 -54 115.69921875 Z " fill="#FFFFFF" transform="translate(2964.55859375,200.796875)"/>
<path d="M0 0 C125.73 0 251.46 0 381 0 C381 29.7 381 59.4 381 90 C362.79285714 103.65535714 362.79285714 103.65535714 356.625 107.9375 C350.71390189 112.07636944 344.84205331 116.264228 339 120.5 C333.19446905 124.70704228 327.36478 128.8759547 321.5 133 C313.37202697 138.71773198 305.31333638 144.52824325 297.26611328 150.35888672 C293.51355206 153.07648169 289.7565875 155.78797486 286 158.5 C281.45220514 161.78388543 276.90490621 165.06845048 272.359375 168.35546875 C265.02963282 173.65467424 257.69286824 178.94304209 250.32714844 184.19213867 C245.53732437 187.60863252 240.76746131 191.05238955 236 194.5 C230.12306411 198.74993183 224.23446048 202.98245223 218.328125 207.19140625 C212.77075852 211.15549106 207.23995785 215.15609785 201.70922852 219.15722656 C196.20706849 223.13531966 190.68839698 227.08952772 185.15039062 231.01757812 C182.45959416 232.86740981 182.45959416 232.86740981 180 235 C247.98 235.33 315.96 235.66 386 236 C386 267.35 386 298.7 386 331 C254.66 331 123.32 331 -12 331 C-12 300.97 -12 270.94 -12 240 C8.38161599 224.14763201 8.38161599 224.14763201 15.3125 219.125 C24.05680325 212.73397689 32.67316996 206.18338725 41.27734375 199.60546875 C45.74511044 196.19007431 50.24024098 192.81418704 54.74609375 189.44921875 C58.29663504 186.78660107 61.81811695 184.08607918 65.34375 181.390625 C73.7818324 174.94082638 82.26603675 168.56609608 90.83422852 162.2902832 C96.77561134 157.92809145 102.64697635 153.47988027 108.5 149 C115.11947282 143.93348268 121.77509458 138.92573836 128.5 134 C136.18101226 128.37267837 143.77048984 122.6332532 151.33544922 116.85107422 C156.91523415 112.58651684 162.50787563 108.34027592 168.125 104.125 C168.78201904 103.63112793 169.43903809 103.13725586 170.1159668 102.62841797 C172.70794116 100.68642623 175.30440835 98.7970611 178 97 C119.26 96.67 60.52 96.34 0 96 C0 64.32 0 32.64 0 0 Z " fill="#FFFFFF" transform="translate(1226,205)"/>
<path d="M0 0 C1.91284209 -0.00392756 3.82568174 -0.00944713 5.73851395 -0.01674271 C19.53717377 -0.06550714 33.40361704 -0.04206786 47.05041695 2.27134514 C47.78647163 2.3959008 48.52252632 2.52045647 49.2808857 2.64878654 C61.00531404 4.79150985 72.83699456 8.28359889 83.32385445 14.01353264 C85.4819876 15.23545115 85.4819876 15.23545115 88.67541695 16.39634514 C96.19554274 19.89709335 102.84862447 24.91571379 109.30041695 30.08384514 C109.96041695 30.41384514 110.62041695 30.74384514 111.30041695 31.08384514 C111.30041695 31.74384514 111.30041695 32.40384514 111.30041695 33.08384514 C111.96041695 33.08384514 112.62041695 33.08384514 113.30041695 33.08384514 C113.30041695 33.74384514 113.30041695 34.40384514 113.30041695 35.08384514 C113.89854195 35.35197014 114.49666695 35.62009514 115.11291695 35.89634514 C117.29889548 37.0830192 118.71374289 38.17983626 120.30041695 40.08384514 C120.30041695 40.74384514 120.30041695 41.40384514 120.30041695 42.08384514 C120.96041695 42.08384514 121.62041695 42.08384514 122.30041695 42.08384514 C136.20314386 57.43203516 148.36341319 79.09155602 148.44758797 100.23406792 C148.45832092 102.09025749 148.45832092 102.09025749 148.46927071 103.98394585 C148.4721107 105.34773038 148.47482246 106.71151519 148.4774189 108.07530022 C148.48368882 109.51804071 148.49033608 110.96077961 148.49733162 112.40351677 C148.5183264 117.13679198 148.52873551 121.87006731 148.5386982 126.60337639 C148.54274864 128.2390291 148.54686565 129.87468164 148.55104828 131.51033401 C148.57009654 139.20329629 148.5843236 146.89624905 148.59266025 154.58923036 C148.60240618 163.43436294 148.62865767 172.27924351 148.66916114 181.12428743 C148.69947012 187.9814838 148.71414336 194.8386086 148.71744126 201.69587058 C148.71977659 205.78096035 148.72853542 209.86578086 148.75390244 213.95079803 C148.77744598 217.80458597 148.78131292 221.65793243 148.77114105 225.51177406 C148.77065175 226.91283526 148.77678933 228.31392016 148.7906971 229.71491241 C149.02997972 255.28666501 138.33194444 276.71379337 122.30041695 296.08384514 C121.60303413 297.00423576 120.90565132 297.92462639 120.1871357 298.87290764 C119.25320992 299.9673217 119.25320992 299.9673217 118.30041695 301.08384514 C117.64041695 301.08384514 116.98041695 301.08384514 116.30041695 301.08384514 C115.97041695 302.07384514 115.64041695 303.06384514 115.30041695 304.08384514 C98.06358499 323.42141599 70.98848822 334.0975101 46.30041695 339.08384514 C44.95125191 339.37207146 44.95125191 339.37207146 43.57483101 339.66612053 C36.3284546 341.01055513 29.2643769 341.24307085 21.90979195 341.32993889 C20.87358711 341.3468679 19.83738228 341.36379692 18.7697773 341.38123894 C9.97511029 341.52475242 9.97511029 341.52475242 5.80383492 341.50938225 C-9.20906309 341.48325113 -19.20152166 343.26727668 -31.05042839 352.79011345 C-33.35899341 354.60114051 -35.82037038 356.12237994 -38.32458305 357.64634514 C-46.22108356 362.65270227 -53.95800182 367.90441276 -61.72302055 373.11118889 C-64.96532838 375.25996245 -68.2351224 377.36356811 -71.51208305 379.45884514 C-77.56369594 383.33834987 -83.60002239 387.24160114 -89.5081768 391.33775139 C-93.49814577 394.08384514 -93.49814577 394.08384514 -95.69958305 394.08384514 C-95.69958305 394.74384514 -95.69958305 395.40384514 -95.69958305 396.08384514 C-100.5875603 397.71317089 -106.05537613 398.15367444 -110.91052055 396.18931389 C-112.82458305 395.08384514 -112.82458305 395.08384514 -115.69958305 393.08384514 C-115.69958305 392.42384514 -115.69958305 391.76384514 -115.69958305 391.08384514 C-116.68958305 390.75384514 -117.67958305 390.42384514 -118.69958305 390.08384514 C-121.07945284 385.03299917 -121.04067693 379.9987508 -121.11364555 374.52915764 C-121.1330117 373.62760948 -121.15237785 372.72606133 -121.17233086 371.79719353 C-121.23182601 368.93450518 -121.27839123 366.07177596 -121.32458305 363.20884514 C-121.36279053 361.26091151 -121.40184386 359.31299428 -121.44177055 357.36509514 C-121.53750271 352.60481256 -121.62164421 347.84445094 -121.69958305 343.08384514 C-125.05604174 341.96502558 -128.04913198 341.73158742 -131.57458305 341.39634514 C-145.47881809 339.83540106 -159.49294893 335.97347912 -171.69958305 329.08384514 C-173.40114555 328.37228264 -173.40114555 328.37228264 -175.13708305 327.64634514 C-184.83139566 323.39445365 -192.71670885 318.01443138 -200.69958305 311.08384514 C-201.85200493 310.11511467 -201.85200493 310.11511467 -203.02770805 309.12681389 C-206.68788718 306.01566163 -209.78913082 302.92979988 -212.69958305 299.08384514 C-213.30028618 298.51021233 -213.9009893 297.93657951 -214.51989555 297.34556389 C-217.12700779 294.64033452 -219.21858318 291.67966495 -221.32458305 288.58384514 C-221.91626274 287.73113029 -221.91626274 287.73113029 -222.51989555 286.86118889 C-227.69958305 279.31914391 -227.69958305 279.31914391 -227.69958305 275.08384514 C-228.35958305 275.08384514 -229.01958305 275.08384514 -229.69958305 275.08384514 C-235.83682059 258.14189168 -239.84359818 243.27052514 -239.86071587 225.1070385 C-239.86568077 223.83420006 -239.87064568 222.56136162 -239.87576103 221.24995232 C-239.88878491 217.78051381 -239.89531051 214.31109456 -239.89977169 210.84163547 C-239.90271936 208.66534089 -239.90682726 206.48905139 -239.91127586 204.3127594 C-239.9249259 197.47837697 -239.9346041 190.64400636 -239.93847775 183.80961126 C-239.94294921 175.96748525 -239.96046509 168.12553434 -239.98947835 160.28346151 C-240.011224 154.19050788 -240.02118888 148.09760303 -240.02251887 142.00461107 C-240.02355796 138.38017066 -240.02927104 134.75589536 -240.04733849 131.13149643 C-240.13191515 113.14403317 -240.03743721 96.25105265 -233.38708305 79.27134514 C-232.93087578 78.07372551 -232.93087578 78.07372551 -232.46545219 76.85191154 C-230.03905293 70.6295651 -227.2335471 64.76074482 -223.69958305 59.08384514 C-223.19427055 58.26400139 -222.68895805 57.44415764 -222.16833305 56.59947014 C-219.38653311 52.25645594 -216.50843866 48.59971185 -212.69958305 45.08384514 C-211.93645805 44.32072014 -211.17333305 43.55759514 -210.38708305 42.77134514 C-209.50020805 41.88447014 -208.61333305 40.99759514 -207.69958305 40.08384514 C-207.17106743 39.50892326 -206.6425518 38.93400139 -206.09802055 38.34165764 C-189.02713506 20.25378322 -165.85789304 10.72913978 -142.19958305 4.83384514 C-141.17929008 4.57514641 -140.15899712 4.31644768 -139.10778618 4.04990959 C-124.74611478 0.62082027 -110.03183588 0.89940358 -95.3519268 0.76743889 C-93.37223305 0.74675249 -91.39254253 0.72575418 -89.41285515 0.70446587 C-85.25999908 0.66071045 -81.10712833 0.61981523 -76.95422173 0.58115959 C-71.78055695 0.53291286 -66.60697165 0.47904747 -61.43338394 0.42320633 C-40.95617488 0.20339989 -20.47842596 0.03754504 0 0 Z M-45.69958305 56.08384514 C-47.03516809 57.63031202 -48.32460022 59.21740147 -49.57458305 60.83384514 C-54.19767173 66.61464846 -59.19125459 71.97851154 -64.2947979 77.33677483 C-67.29813073 80.49592978 -70.27334215 83.67365207 -73.1566143 86.94322014 C-73.64750542 87.49977287 -74.13839653 88.05632561 -74.64416313 88.62974358 C-75.89538435 90.05415089 -75.89538435 90.05415089 -75.69958305 92.08384514 C-76.35958305 92.08384514 -77.01958305 92.08384514 -77.69958305 92.08384514 C-79.20232192 93.53067566 -79.20232192 93.53067566 -80.76208305 95.45884514 C-83.46011772 98.63628266 -86.20208259 101.75480208 -89.01208305 104.83384514 C-93.27258558 109.54588811 -97.32181184 114.40418724 -101.34020805 119.32212639 C-103.67570656 122.055897 -106.1400155 124.56066954 -108.69958305 127.08384514 C-110.15195308 128.6325329 -111.59043249 130.19441071 -113.01208305 131.77134514 C-113.70946587 132.53833733 -114.40684868 133.30532951 -115.1253643 134.09556389 C-116.90649719 135.92251236 -116.90649719 135.92251236 -116.69958305 138.08384514 C-117.35958305 138.08384514 -118.01958305 138.08384514 -118.69958305 138.08384514 C-120.19587485 139.76239644 -121.62250966 141.50343411 -123.01208305 143.27134514 C-126.56915811 147.78261011 -130.30815748 151.85734546 -134.51208305 155.77134514 C-135.92322083 157.03602785 -135.92322083 157.03602785 -135.69958305 159.08384514 C-136.35958305 159.08384514 -137.01958305 159.08384514 -137.69958305 159.08384514 C-139.11219834 160.70486302 -139.11219834 160.70486302 -140.51208305 162.77134514 C-143.74188863 167.23192614 -147.39477253 170.92401357 -151.51208305 174.58384514 C-154.68524885 178.50721626 -154.51043226 182.95734371 -154.3050518 187.81431389 C-153.32717813 193.09483175 -150.99807413 196.8652019 -146.69958305 200.08384514 C-139.15679349 203.72509816 -131.4267139 203.50894818 -123.21520805 203.49009514 C-121.82756144 203.49934581 -120.43992538 203.51032241 -119.05230522 203.52293205 C-113.94248308 203.56563473 -108.83268473 203.57697026 -103.72271538 203.5891552 C-99.38528981 203.60070262 -95.04825228 203.62429039 -90.710989 203.66384697 C-88.68734466 203.67736379 -86.66423337 203.673259 -84.64056206 203.66843987 C-83.40868156 203.67855095 -82.17680107 203.68866203 -80.90759087 203.69907951 C-79.82665154 203.70113396 -78.7457122 203.7031884 -77.63201714 203.7053051 C-74.26194412 204.14033877 -72.41340695 205.06582226 -69.69958305 207.08384514 C-66.97364054 211.17275891 -67.24354584 214.2858334 -67.69958305 219.08384514 C-68.35392956 222.06483195 -69.31043253 224.89538199 -70.32458305 227.77134514 C-70.88452018 229.4445084 -71.44035245 231.11904973 -71.9925518 232.79478264 C-72.42060112 234.09367424 -72.42060112 234.09367424 -72.8572979 235.41880608 C-74.26460785 239.87161635 -75.44508795 244.38204059 -76.63708305 248.89634514 C-78.94335978 257.59137104 -81.55550034 266.15169096 -84.42785454 274.67686272 C-88.00084063 285.38252268 -88.00084063 285.38252268 -85.69958305 296.08384514 C-82.0531255 301.18225997 -82.0531255 301.18225997 -76.69958305 304.08384514 C-69.47716879 304.83799281 -63.16059848 303.31435285 -56.69958305 300.08384514 C-56.69958305 299.42384514 -56.69958305 298.76384514 -56.69958305 298.08384514 C-56.03958305 298.08384514 -55.37958305 298.08384514 -54.69958305 298.08384514 C-53.19684419 296.63701462 -53.19684419 296.63701462 -51.63708305 294.70884514 C-48.9764842 291.57744072 -46.27873597 288.49713307 -43.51208305 285.45884514 C-39.89590887 281.45653711 -36.37951107 277.38101326 -32.88708305 273.27134514 C-28.33167524 267.91702482 -23.645675 262.70842954 -18.85534477 257.56382561 C-15.64084768 254.11113885 -12.49638394 250.61234177 -9.41052055 247.04478264 C-7.34625221 244.67888604 -5.24254339 242.35064179 -3.13708305 240.02134514 C-1.65690505 238.37642129 -0.17768065 236.73063866 1.30041695 235.08384514 C1.92947945 234.3838842 2.55854195 233.68392326 3.20666695 232.96275139 C6.24409846 229.96828816 6.24409846 229.96828816 7.30041695 226.08384514 C7.96041695 226.08384514 8.62041695 226.08384514 9.30041695 226.08384514 C10.75444037 224.44621794 12.13890373 222.74650318 13.48791695 221.02134514 C16.13408829 217.7083555 18.73780739 214.51735172 21.80041695 211.58384514 C24.72520705 208.76738059 27.25547763 205.74782375 29.80041695 202.58384514 C32.34535626 199.41986653 34.87562684 196.40030968 37.80041695 193.58384514 C42.38790804 189.1474714 46.53450986 184.23314666 50.30041695 179.08384514 C50.30041695 178.42384514 50.30041695 177.76384514 50.30041695 177.08384514 C50.90240913 176.84923576 51.50440132 176.61462639 52.1246357 176.37290764 C56.23504336 173.93765714 57.79274075 169.46572957 59.30041695 165.08384514 C59.73500981 160.14993796 58.35574338 155.95392529 55.30041695 152.08384514 C49.87020926 146.80805094 46.447923 144.9679207 38.72107124 144.92613029 C38.05727455 144.92104958 37.39347786 144.91596886 36.70956612 144.91073418 C35.26909067 144.90004182 33.82859874 144.89141719 32.38809967 144.88461494 C30.10518848 144.87280705 27.82246486 144.8533488 25.53962898 144.83149529 C19.04922955 144.76994765 12.55884937 144.71587981 6.06823921 144.68247795 C2.09645439 144.66148935 -1.87498801 144.62615224 -5.84657669 144.58172035 C-7.35713664 144.56759261 -8.86775716 144.55884521 -10.37837982 144.55566597 C-12.49663353 144.55073658 -14.61398465 144.5275283 -16.73205376 144.50034904 C-17.93545906 144.49226219 -19.13886436 144.48417534 -20.3787365 144.47584343 C-24.65927913 143.97056101 -28.28487508 142.74458928 -31.13708305 139.39634514 C-33.06614964 131.46573808 -28.77119437 122.48561863 -26.32458305 115.08384514 C-25.92497368 113.85150139 -25.5253643 112.61915764 -25.11364555 111.34947014 C-23.32994434 105.88101773 -21.49545508 100.45341664 -19.43688774 95.08286858 C-17.81099493 90.67465323 -16.41721135 86.19117506 -15.01208305 81.70884514 C-14.69175102 80.73173576 -14.37141899 79.75462639 -14.04137993 78.74790764 C-11.73528178 71.35265899 -9.78408685 63.91483755 -13.38708305 56.70884514 C-17.14639322 52.44152009 -19.65918287 49.98894704 -25.38708305 49.14634514 C-33.33266007 48.64826419 -39.77191618 50.79905123 -45.69958305 56.08384514 Z " fill="#1BD1FE" transform="translate(926.6995830535889,182.9161548614502)"/>
<path d="M0 0 C113.85 0 227.7 0 345 0 C345 29.04 345 58.08 345 88 C273.72 88 202.44 88 129 88 C129 99.22 129 110.44 129 122 C197.97 122 266.94 122 338 122 C338 150.05 338 178.1 338 207 C269.03 207 200.06 207 129 207 C129 218.88 129 230.76 129 243 C200.94 243 272.88 243 347 243 C347 271.71 347 300.42 347 330 C232.49 330 117.98 330 0 330 C0 221.1 0 112.2 0 0 Z " fill="#FFFFFF" transform="translate(2038,205)"/>
<path d="M0 0 C113.85 0 227.7 0 345 0 C345 29.04 345 58.08 345 88 C273.72 88 202.44 88 129 88 C129 99.22 129 110.44 129 122 C197.97 122 266.94 122 338 122 C338 150.05 338 178.1 338 207 C269.03 207 200.06 207 129 207 C129 218.88 129 230.76 129 243 C200.94 243 272.88 243 347 243 C347 271.71 347 300.42 347 330 C232.49 330 117.98 330 0 330 C0 221.1 0 112.2 0 0 Z " fill="#FFFFFF" transform="translate(1649,205)"/>
<path d="M0 0 C43.23 0 86.46 0 131 0 C131 77.55 131 155.1 131 235 C191.72 235 252.44 235 315 235 C315 266.35 315 297.7 315 330 C211.05 330 107.1 330 0 330 C0 221.1 0 112.2 0 0 Z " fill="#FFFFFF" transform="translate(2427,205)"/>
<path d="M0 0 C2.10302634 -0.01180258 4.20301901 -0.06098039 6.30541992 -0.11157227 C21.26151602 -0.2920073 36.28237268 4.53355549 47.31518555 15.09741211 C48.46574275 16.48811677 49.52308085 17.95458421 50.5690918 19.42553711 C51.8375293 20.63209961 51.8375293 20.63209961 53.1315918 21.86303711 C55.91797118 24.79230774 57.75748074 27.85384081 59.5690918 31.42553711 C59.91302979 32.03147705 60.25696777 32.63741699 60.61132812 33.26171875 C64.2078755 40.21920966 64.26162153 46.89627599 64.1940918 54.61303711 C64.18152344 56.55206909 64.18152344 56.55206909 64.16870117 58.53027344 C63.94201342 68.07226045 62.97459143 75.34622503 57.5690918 83.42553711 C56.97741211 84.32530273 56.38573242 85.22506836 55.77612305 86.15209961 C46.93340879 98.22194875 33.41479989 107.50587572 18.5690918 110.42553711 C14.17005377 110.69323392 9.77049526 110.73881034 5.36450195 110.77563477 C3.93529798 110.79203283 2.50617032 110.81910385 1.07739258 110.85766602 C-15.00170614 111.28798865 -29.40899488 106.85691565 -41.96606445 96.29272461 C-51.3394431 87.31055542 -58.38013449 76.76338937 -58.99731445 63.52709961 C-59.01703051 61.03498976 -59.01533654 58.54262848 -58.9934082 56.05053711 C-59.01725586 54.81303711 -59.04110352 53.57553711 -59.06567383 52.30053711 C-59.04647211 40.13944636 -55.06493579 29.90226102 -47.4309082 20.42553711 C-44.8684082 18.17553711 -44.8684082 18.17553711 -42.4309082 16.42553711 C-41.72836914 15.66112305 -41.02583008 14.89670898 -40.30200195 14.10913086 C-36.83561007 10.86911559 -33.25184784 8.89102362 -29.0559082 6.73803711 C-28.32629883 6.3480957 -27.59668945 5.9581543 -26.8449707 5.55639648 C-17.99071518 0.93162909 -9.86534889 0.02607781 0 0 Z " fill="#4EC9FF" transform="translate(2979.430908203125,315.574462890625)"/>
<path d="M0 0 C-1 2 -1 2 -2.70996094 2.60522461 C-5.36903253 3.0636168 -7.94363247 3.21598632 -10.640625 3.31640625 C-12.24550781 3.37924805 -12.24550781 3.37924805 -13.8828125 3.44335938 C-14.99398437 3.48267578 -16.10515625 3.52199219 -17.25 3.5625 C-18.37664063 3.60568359 -19.50328125 3.64886719 -20.6640625 3.69335938 C-23.44258954 3.79932015 -26.22120391 3.90139142 -29 4 C-29.33 4.66 -29.66 5.32 -30 6 C-30.33 5.67 -30.66 5.34 -31 5 C-34.30475133 4.77467605 -36.55818237 4.81064959 -39.625 6.125 C-42 7 -42 7 -44.1484375 6.0546875 C-44.75945313 5.70664063 -45.37046875 5.35859375 -46 5 C-30.51714126 1.22583375 -15.97781645 -0.21854156 0 0 Z " fill="#1AC1E0" transform="translate(825,184)"/>
<path d="M0 0 C2.40172494 3.60258741 2.31653874 5.45897578 2.44921875 9.75 C2.47095657 10.40452148 2.4926944 11.05904297 2.51509094 11.73339844 C2.55893825 13.11509818 2.59815392 14.49695163 2.63305664 15.87890625 C2.68731261 17.99269916 2.75752173 20.10551433 2.83007812 22.21875 C3.14329966 32.57010101 3.14329966 32.57010101 2 36 C1.34 36 0.68 36 0 36 C0 24.12 0 12.24 0 0 Z " fill="#00D0EF" transform="translate(806,527)"/>
<path d="M0 0 C0.99 0.33 1.98 0.66 3 1 C2 3 2 3 0 6 C-0.99 6 -1.98 6 -3 6 C-3.33 8.31 -3.66 10.62 -4 13 C-4.66 13 -5.32 13 -6 13 C-6.433125 13.495 -6.86625 13.99 -7.3125 14.5 C-9 16 -9 16 -11.6875 16.1875 C-12.8321875 16.0946875 -12.8321875 16.0946875 -14 16 C-2.28571429 2.28571429 -2.28571429 2.28571429 0 0 Z " fill="#17C0DE" transform="translate(919,427)"/>
<path d="M0 0 C5.73371105 7.04802877 7.58448977 15.08653107 7 24 C6.67 22.68 6.34 21.36 6 20 C5.34 20 4.68 20 4 20 C3.34 17.03 2.68 14.06 2 11 C1.34 11 0.68 11 0 11 C0 8.36 0 5.72 0 3 C-0.66 2.67 -1.32 2.34 -2 2 C-1.34 1.34 -0.68 0.68 0 0 Z " fill="#13C7E1" transform="translate(1065,250)"/>
<path d="M0 0 C-1.65 0.66 -3.3 1.32 -5 2 C-5 2.66 -5 3.32 -5 4 C-10.35872991 5.7862433 -16.00330642 5.95841292 -21.125 3.5 C-21.74375 3.005 -22.3625 2.51 -23 2 C-22.01 2 -21.02 2 -20 2 C-19.67 1.34 -19.34 0.68 -19 0 C-18.01 0.33 -17.02 0.66 -16 1 C-16.33 1.99 -16.66 2.98 -17 4 C-14.69 4 -12.38 4 -10 4 C-10.33 3.01 -10.66 2.02 -11 1 C-9.68 0.67 -8.36 0.34 -7 0 C-7.33 0.66 -7.66 1.32 -8 2 C-7.34 2.33 -6.68 2.66 -6 3 C-6 2.01 -6 1.02 -6 0 C-3.50907189 -1.24546405 -2.58919267 -0.7767578 0 0 Z " fill="#0BA2C0" transform="translate(836,575)"/>
<path d="M0 0 C0 0.66 0 1.32 0 2 C-2.84958154 4.05434948 -5.77161646 5.86804506 -8.8125 7.625 C-11.12294121 8.81316542 -11.12294121 8.81316542 -12 11 C-13.65 11 -15.3 11 -17 11 C-13.04925974 6.52249437 -6.24406437 0 0 0 Z " fill="#16BFDC" transform="translate(747,203)"/>
<path d="M0 0 C2 3 2 3 1.9375 5.5625 C1 8 1 8 -1.5625 9.3125 C-2.366875 9.539375 -3.17125 9.76625 -4 10 C-4.8125 7.8125 -4.8125 7.8125 -5 5 C-2.5625 2.1875 -2.5625 2.1875 0 0 Z " fill="#13CCE9" transform="translate(982,355)"/>
<path d="M0 0 C1.11196276 3.33588828 1.09809194 4.70572419 0 8 C-2.0625 9.3125 -2.0625 9.3125 -4 10 C-4 9.01 -4 8.02 -4 7 C-4.66 6.67 -5.32 6.34 -6 6 C-4.02 4.02 -2.04 2.04 0 0 Z " fill="#17CAF2" transform="translate(725,217)"/>
<path d="M0 0 C0 0.66 0 1.32 0 2 C-1.32 2 -2.64 2 -4 2 C-4.33 2.99 -4.66 3.98 -5 5 C-5.33 4.67 -5.66 4.34 -6 4 C-9.30475133 3.77467605 -11.55818237 3.81064959 -14.625 5.125 C-17 6 -17 6 -19.1484375 5.0546875 C-19.75945313 4.70664063 -20.37046875 4.35859375 -21 4 C-18.06333774 3.32944715 -15.12577641 2.66340947 -12.1875 2 C-11.35412109 1.80921875 -10.52074219 1.6184375 -9.66210938 1.421875 C-8.85966797 1.24140625 -8.05722656 1.0609375 -7.23046875 0.875 C-6.49207764 0.70742187 -5.75368652 0.53984375 -4.99291992 0.3671875 C-3 0 -3 0 0 0 Z " fill="#09C8E7" transform="translate(800,185)"/>
<path d="M0 0 C1.1171875 1.578125 1.1171875 1.578125 2 4 C1.3203125 7.234375 1.3203125 7.234375 0.125 10.75 C-0.26429687 11.92046875 -0.65359375 13.0909375 -1.0546875 14.296875 C-1.36664062 15.18890625 -1.67859375 16.0809375 -2 17 C-2.66 16.67 -3.32 16.34 -4 16 C-3.31092878 12.34056353 -2.43178734 8.77558041 -1.4375 5.1875 C-1.16808594 4.21167969 -0.89867187 3.23585938 -0.62109375 2.23046875 C-0.41613281 1.49441406 -0.21117187 0.75835937 0 0 Z " fill="#1AC9E4" transform="translate(1071,430)"/>
<path d="M0 0 C0.99 0.66 1.98 1.32 3 2 C4.65549531 2.38499891 6.3222433 2.72793135 8 3 C8 3.99 8 4.98 8 6 C5.18185434 7.40907283 3.82722796 6.50872691 0.875 5.5625 C-0.03507813 5.27503906 -0.94515625 4.98757813 -1.8828125 4.69140625 C-2.58148437 4.46324219 -3.28015625 4.23507812 -4 4 C-2.68 3.34 -1.36 2.68 0 2 C0 1.34 0 0.68 0 0 Z " fill="#11C8E4" transform="translate(780,516)"/>
<path d="M0 0 C0.99 0.33 1.98 0.66 3 1 C2.06409496 2.1055189 1.12620142 3.20935453 0.1875 4.3125 C-0.33457031 4.92738281 -0.85664062 5.54226563 -1.39453125 6.17578125 C-2.87172469 7.85424679 -4.40039131 9.43882034 -6 11 C-6.66 10.34 -7.32 9.68 -8 9 C-5.36 6.03 -2.72 3.06 0 0 Z " fill="#18C4DE" transform="translate(964,376)"/>
<path d="M0 0 C1.32 0.99 2.64 1.98 4 3 C3.01 4.485 3.01 4.485 2 6 C1.54398739 8.50896686 1.54398739 8.50896686 1.375 11.1875 C1.30023437 12.08855469 1.22546875 12.98960937 1.1484375 13.91796875 C1.09945312 14.60503906 1.05046875 15.29210937 1 16 C-1.68099496 11.25262553 -1.5532983 6.76649152 -0.5 1.5 C-0.335 1.005 -0.17 0.51 0 0 Z " fill="#0DCDE8" transform="translate(772,355)"/>
<path d="M0 0 C0.99 0 1.98 0 3 0 C4.59162079 5.57067277 5.20674944 10.21101581 5 16 C3.15209462 12.68983906 2.25458513 9.42826509 1.375 5.75 C0.98441406 4.13351562 0.98441406 4.13351562 0.5859375 2.484375 C0.39257812 1.66453125 0.19921875 0.8446875 0 0 Z " fill="#12C2DD" transform="translate(688,429)"/>
<path d="M0 0 C0.33 1.32 0.66 2.64 1 4 C0.34 4 -0.32 4 -1 4 C-1.433125 4.495 -1.86625 4.99 -2.3125 5.5 C-4 7 -4 7 -6.6875 7.1875 C-7.8321875 7.0946875 -7.8321875 7.0946875 -9 7 C-5.38671875 2.3125 -5.38671875 2.3125 -4 1 C-3.01 1 -2.02 1 -1 1 C-0.67 0.67 -0.34 0.34 0 0 Z " fill="#14CAE9" transform="translate(914,436)"/>
<path d="M0 0 C0 0.66 0 1.32 0 2 C0.99 2.33 1.98 2.66 3 3 C1.71349294 3.69710731 0.42059335 4.38242876 -0.875 5.0625 C-1.95394531 5.63677734 -1.95394531 5.63677734 -3.0546875 6.22265625 C-3.69664062 6.47917969 -4.33859375 6.73570312 -5 7 C-5.66 6.67 -6.32 6.34 -7 6 C-6.01 5.67 -5.02 5.34 -4 5 C-4.33 3.68 -4.66 2.36 -5 1 C-3 0 -3 0 0 0 Z " fill="#0DB7D7" transform="translate(1001,509)"/>
<path d="M0 0 C-0.9520721 1.00596297 -1.91187346 2.00461563 -2.875 3 C-3.40867187 3.556875 -3.94234375 4.11375 -4.4921875 4.6875 C-6 6 -6 6 -8 6 C-8.33 5.01 -8.66 4.02 -9 3 C-7 0 -7 0 -5.0625 -0.75 C-3 -1 -3 -1 0 0 Z " fill="#18C7E9" transform="translate(839,288)"/>
<path d="M0 0 C5.56890517 0.47986031 10.67067568 1.29915181 16 3 C16 3.33 16 3.66 16 4 C11.545 4.495 11.545 4.495 7 5 C7 4.34 7 3.68 7 3 C5.68 3 4.36 3 3 3 C3 2.34 3 1.68 3 1 C2.01 0.67 1.02 0.34 0 0 Z " fill="#12AFC5" transform="translate(974,186)"/>
<path d="M0 0 C2.1519437 3.22791555 2.20086443 4.28400809 2 8 C0.68 8.33 -0.64 8.66 -2 9 C-2.6875 7.3125 -2.6875 7.3125 -3 5 C-1.5625 2.25 -1.5625 2.25 0 0 Z " fill="#0EC6E4" transform="translate(700,248)"/>
<path d="M0 0 C0.99 0.33 1.98 0.66 3 1 C1.4169423 5.2742558 -1.50568404 7.26531794 -5 10 C-5 6.60406522 -4.47834052 5.93380119 -2.5 3.3125 C-2.0359375 2.68988281 -1.571875 2.06726563 -1.09375 1.42578125 C-0.7328125 0.95527344 -0.371875 0.48476562 0 0 Z " fill="#15B0CC" transform="translate(708,235)"/>
<path d="M0 0 C0.33 0.66 0.66 1.32 1 2 C1.99 2.33 2.98 2.66 4 3 C3.67 3.99 3.34 4.98 3 6 C2.01 6 1.02 6 0 6 C-0.99 6.495 -0.99 6.495 -2 7 C-2.66 6.34 -3.32 5.68 -4 5 C-2.68 3.35 -1.36 1.7 0 0 Z " fill="#13C7E9" transform="translate(896,452)"/>
<path d="M0 0 C0.66 0.66 1.32 1.32 2 2 C0.38405168 4.04119788 -1.2856382 6.04072937 -3 8 C-3.66 8 -4.32 8 -5 8 C-5 5.69 -5 3.38 -5 1 C-4.01 1.33 -3.02 1.66 -2 2 C-1.34 1.34 -0.68 0.68 0 0 Z " fill="#17B5D5" transform="translate(802,325)"/>
<path d="M0 0 C0.33 0 0.66 0 1 0 C1.0825 1.216875 1.165 2.43375 1.25 3.6875 C1.73758372 7.78465871 3.09510536 10.00139908 6 13 C5.01 13.495 5.01 13.495 4 14 C0.98654128 11.56979135 0.06407419 10.28094069 -0.8125 6.4375 C-1 3 -1 3 0 0 Z " fill="#0FB5C5" transform="translate(895,312)"/>
<path d="M0 0 C0.556875 0.226875 1.11375 0.45375 1.6875 0.6875 C-0.84038007 3.48622437 -2.51661134 5.14523019 -6.3125 5.6875 C-6.6425 4.6975 -6.9725 3.7075 -7.3125 2.6875 C-2.88173077 -0.38942308 -2.88173077 -0.38942308 0 0 Z " fill="#12C5E7" transform="translate(754.3125,199.3125)"/>
<path d="M0 0 C0.99 0.33 1.98 0.66 3 1 C2.41196203 4.02419525 1.77321882 7.01758453 1 10 C0.34 10 -0.32 10 -1 10 C-1.33 10.66 -1.66 11.32 -2 12 C-2 9.69 -2 7.38 -2 5 C-1.34 5 -0.68 5 0 5 C0 3.35 0 1.7 0 0 Z " fill="#24D8FF" transform="translate(905,285)"/>
<path d="M0 0 C0.99 0.33 1.98 0.66 3 1 C3.96070434 3.88211302 4.10581883 5.69850044 4.0625 8.6875 C4.05347656 9.49574219 4.04445313 10.30398438 4.03515625 11.13671875 C4.02355469 11.75160156 4.01195312 12.36648438 4 13 C3.67 11.68 3.34 10.36 3 9 C2.34 9 1.68 9 1 9 C0.67 6.03 0.34 3.06 0 0 Z " fill="#1ECDEA" transform="translate(1068,261)"/>
<path d="M0 0 C-0.38520564 2.53910197 -0.70097943 3.72751123 -2.62890625 5.484375 C-3.26699219 5.90203125 -3.90507813 6.3196875 -4.5625 6.75 C-5.20316406 7.17796875 -5.84382812 7.6059375 -6.50390625 8.046875 C-7.24447266 8.51867187 -7.24447266 8.51867187 -8 9 C-8.66 8.67 -9.32 8.34 -10 8 C-8.71451591 6.66070495 -7.42141845 5.32871357 -6.125 4 C-5.04605469 2.88625 -5.04605469 2.88625 -3.9453125 1.75 C-2 0 -2 0 0 0 Z " fill="#18CBE7" transform="translate(954,390)"/>
<path d="M0 0 C-1.48538012 4.7037037 -1.48538012 4.7037037 -4.0625 6.1875 C-4.701875 6.455625 -5.34125 6.72375 -6 7 C-6.33 7.66 -6.66 8.32 -7 9 C-6.39285714 3.53571429 -6.39285714 3.53571429 -4.625 1.125 C-3 0 -3 0 0 0 Z " fill="#13BCD7" transform="translate(827,299)"/>
<path d="M0 0 C1.89213369 2.38573379 3.02391783 4.07175348 4 7 C1.03 6.505 1.03 6.505 -2 6 C-2.33 5.01 -2.66 4.02 -3 3 C-2.34 3 -1.68 3 -1 3 C-0.67 2.01 -0.34 1.02 0 0 Z " fill="#11C5E7" transform="translate(873,478)"/>
<path d="M0 0 C-0.75 6.75 -0.75 6.75 -3 9 C-4.35439668 6.29120665 -4.06501451 3.99066732 -4 1 C-2 0 -2 0 0 0 Z " fill="#16C7E5" transform="translate(850,432)"/>
<path d="M0 0 C0.99 1.32 1.98 2.64 3 4 C2.01 5.485 2.01 5.485 1 7 C-0.65 6.67 -2.3 6.34 -4 6 C-2.68 4.02 -1.36 2.04 0 0 Z " fill="#0EC1E2" transform="translate(930,414)"/>
<path d="M0 0 C1.65 0 3.3 0 5 0 C5 0.66 5 1.32 5 2 C5.66 2 6.32 2 7 2 C7.33 3.65 7.66 5.3 8 7 C6.66382648 6.02471263 5.3311249 5.04466681 4 4.0625 C3.2575 3.51722656 2.515 2.97195313 1.75 2.41015625 C1.1725 1.94480469 0.595 1.47945313 0 1 C0 0.67 0 0.34 0 0 Z " fill="#10BAD3" transform="translate(718,486)"/>
<path d="M0 0 C4.76132597 4.30055249 4.76132597 4.30055249 5 8 C4.01 9.485 4.01 9.485 3 11 C0 4.5 0 4.5 0 0 Z " fill="#12B6D4" transform="translate(1057,237)"/>
<path d="M0 0 C0 0.66 0 1.32 0 2 C0.66 2.33 1.32 2.66 2 3 C-3.75 5 -3.75 5 -6 5 C-6 4.01 -6 3.02 -6 2 C-2.25 0 -2.25 0 0 0 Z " fill="#12C1E6" transform="translate(972,518)"/>
<path d="M0 0 C0.99 0.33 1.98 0.66 3 1 C1.02 3.31 -0.96 5.62 -3 8 C-3.66 6.68 -4.32 5.36 -5 4 C-4.67 3.34 -4.34 2.68 -4 2 C-3.01 2.33 -2.02 2.66 -1 3 C-0.67 2.01 -0.34 1.02 0 0 Z " fill="#0FADCE" transform="translate(783,346)"/>
<path d="M0 0 C0.33 0.66 0.66 1.32 1 2 C3.01669827 3.13350534 3.01669827 3.13350534 5 4 C3.68 4.99 2.36 5.98 1 7 C0.34 6.34 -0.32 5.68 -1 5 C-0.625 2.375 -0.625 2.375 0 0 Z " fill="#14C3E3" transform="translate(842,275)"/>
<path d="M0 0 C1.32 0 2.64 0 4 0 C2.60667426 3.36720387 1.0210714 4.9859524 -2 7 C-1.125 1.125 -1.125 1.125 0 0 Z " fill="#19BDDD" transform="translate(1035,487)"/>
<path d="M0 0 C2.475 0.495 2.475 0.495 5 1 C5.33 2.98 5.66 4.96 6 7 C6.66 7 7.32 7 8 7 C7.67 7.66 7.34 8.32 7 9 C4.04070881 6.24479785 1.96318174 3.53372712 0 0 Z " fill="#13B2CF" transform="translate(707,473)"/>
<path d="M0 0 C2.76276177 0.52268466 5.3260876 1.10869587 8 2 C8 2.99 8 3.98 8 5 C5.36 4.34 2.72 3.68 0 3 C0 2.01 0 1.02 0 0 Z " fill="#13D9FF" transform="translate(849,388)"/>
<path d="M0 0 C2.97 0.33 5.94 0.66 9 1 C9 1.66 9 2.32 9 3 C5.7 2.67 2.4 2.34 -1 2 C-0.67 1.34 -0.34 0.68 0 0 Z " fill="#20DBFC" transform="translate(957,520)"/>
<path d="M0 0 C1 3 1 3 0 6 C-1.32 6 -2.64 6 -4 6 C-4 6.66 -4 7.32 -4 8 C-4.66 7.67 -5.32 7.34 -6 7 C-5.67 6.34 -5.34 5.68 -5 5 C-4.34 5 -3.68 5 -3 5 C-2.5359375 4.0409375 -2.5359375 4.0409375 -2.0625 3.0625 C-1 1 -1 1 0 0 Z " fill="#12B8D4" transform="translate(939,404)"/>
<path d="M0 0 C1.2065625 0.0309375 1.2065625 0.0309375 2.4375 0.0625 C2.4375 0.7225 2.4375 1.3825 2.4375 2.0625 C0.81123596 3.44482443 -0.8550002 4.78187515 -2.5625 6.0625 C-2.94468767 4.40635343 -3.27645102 2.73792976 -3.5625 1.0625 C-2.5625 0.0625 -2.5625 0.0625 0 0 Z " fill="#17C4E9" transform="translate(882.5625,234.9375)"/>
<path d="M0 0 C1.60080151 4.00200378 0.29279692 7.04556236 -1 11 C-3.1519437 7.77208445 -3.20086443 6.71599191 -3 3 C-2.01 3 -1.02 3 0 3 C0 2.01 0 1.02 0 0 Z " fill="#0FB0D8" transform="translate(841,458)"/>
<path d="M0 0 C0.33 1.32 0.66 2.64 1 4 C1.33 4.66 1.66 5.32 2 6 C-0.31 6.33 -2.62 6.66 -5 7 C-3.35 4.69 -1.7 2.38 0 0 Z " fill="#16C0DE" transform="translate(904,443)"/>
<path d="M0 0 C0.33 0 0.66 0 1 0 C0.25 7.625 0.25 7.625 -2 11 C-3.14947895 7.44706507 -3.0868937 6.20023331 -1.5625 2.6875 C-1.046875 1.800625 -0.53125 0.91375 0 0 Z " fill="#09BAD0" transform="translate(852,421)"/>
<path d="M0 0 C0.99 0.33 1.98 0.66 3 1 C3 2.65 3 4.3 3 6 C2.01 6.495 2.01 6.495 1 7 C1 5.68 1 4.36 1 3 C0.01 3.33 -0.98 3.66 -2 4 C-2 3.34 -2 2.68 -2 2 C-1.34 2 -0.68 2 0 2 C0 1.34 0 0.68 0 0 Z " fill="#16C7EA" transform="translate(838,280)"/>
<path d="M0 0 C1.98 0 3.96 0 6 0 C4.71937515 1.7074998 3.38232443 3.37373596 2 5 C1.34 5 0.68 5 0 5 C0 3.35 0 1.7 0 0 Z " fill="#12C8E5" transform="translate(874,241)"/>
<path d="M0 0 C-3.44833324 2.05257931 -5.31661591 3.0632763 -9.375 2.6875 C-10.24125 2.460625 -11.1075 2.23375 -12 2 C-12 1.67 -12 1.34 -12 1 C-3.96428571 -1.27678571 -3.96428571 -1.27678571 0 0 Z " fill="#08B1D2" transform="translate(791,188)"/>
</svg>
